<?xml version="1.0" encoding="utf-8"?>
<!-- Generator: Adobe Illustrator 19.0.0, SVG Export Plug-In . SVG Version: 6.00 Build 0)  -->
<svg version="1.1" id="Layer_1" xmlns="http://www.w3.org/2000/svg" xmlns:xlink="http://www.w3.org/1999/xlink" x="0px" y="0px"
	 viewBox="-17 81 123 40" style="enable-background:new -17 81 123 40;" xml:space="preserve">
<style type="text/css">
	.st0{fill:none;}
	.st1{fill:#34495E;}
	.st2{fill:#F39C11;}
	.st3{fill:#2D3E50;}
</style>
<g>
	<path class="st0" d="M74.2,103.9c-0.7,0.2-1.4,0.4-2.1,0.5c-1.9,0.3-2.8,1.2-2.8,2.5c0.1,1.4,0.9,2.1,2.4,2.1
		c2.6,0,4.2-1.5,4.2-4.1v-1.4C75.9,103.6,74.4,103.9,74.2,103.9z"/>
	<path class="st0" d="M55.1,98.1c-2.7,0-4,1.8-4,5.5c0.1,3.5,1.4,5.2,3.9,5.2c2.5,0,3.9-1.7,4-5.2C59,99.9,57.7,98.1,55.1,98.1z"/>
	<path class="st1" d="M19,89.2h-2.4v23.3h4.7v-21C21.2,90.2,20.2,89.2,19,89.2z"/>
	<path class="st1" d="M23.8,96.1v16.4h4.7V97.2C28.5,97.2,24.2,97.5,23.8,96.1z"/>
	<path class="st2" d="M26.3,93h-2.4c0,0-0.1,0.9,0,1.7c0,2.5,4.7,1.8,4.7,1.8v-0.6v-0.7C28.6,93.8,27.8,93,26.3,93z"/>
	<path class="st1" d="M39.9,96.1v16.4h4.7V97.2C44.6,97.2,40.3,97.5,39.9,96.1z"/>
	<path class="st2" d="M42.4,93h-2.4c0,0-0.1,0.9,0,1.7c0,2.5,4.7,1.8,4.7,1.8v-0.6v-0.7C44.7,93.8,43.9,93,42.4,93z"/>
	<path class="st1" d="M99.2,96.1v16.4h4.7V97.2C103.9,97.2,99.6,97.5,99.2,96.1z"/>
	<path class="st2" d="M101.7,93h-2.4c0,0-0.1,0.9,0,1.7c0,2.5,4.7,1.8,4.7,1.8v-0.6v-0.7C104,93.8,103.2,93,101.7,93z"/>
	<path class="st1" d="M39.1,108.8l-2.5-0.1c-0.9,0-1.4-0.4-1.4-1.2v-10h0.5c1.3,0,2.3-1,2.3-2.3v-1h-2.8v-2.9c0-1.2-1-2.3-2.3-2.3
		h-2.4v19.8c0,2,0.8,3.2,2.6,3.4c1.8,0.2,4.4,0.2,6,0.1V108.8z"/>
	<path class="st1" d="M54.9,94.3c-5.8,0.1-8.7,3.1-8.7,9.1c0,6.2,2.5,9.4,7.4,9.4c2.3,0,4.1-0.9,5.3-2.7c0,1.9,0,1.8,0,1.8
		c0,2.8-1.3,4.2-3.7,4.2c-1.9,0-3-0.6-3.3-1.9h-5.2c1.1,3.8,3.8,5.7,8,5.7c5.9-0.1,8.9-2.4,8.9-6.9v-10.7
		C63.7,96.9,60.7,94.2,54.9,94.3z M55,108.8c-2.5,0-3.8-1.7-3.9-5.2c0-3.7,1.3-5.5,4-5.5c2.7,0,4,1.8,3.9,5.5
		C58.9,107,57.5,108.8,55,108.8z"/>
	<path class="st0" d="M71.7,109.1c0.1,0,0.1,0,0.2,0h-0.5C71.5,109.1,71.6,109.1,71.7,109.1z"/>
	<path class="st2" d="M80.4,105.2v-4.9c-1.2,2.4-4.5,3.3-4.5,3.3v1.4c0,1.8-0.8,3.1-2.2,3.7h6.1C80.2,107.7,80.4,106.6,80.4,105.2z"
		/>
	<path class="st1" d="M81.9,109.1h-2.3h-7.7h-0.5h-0.3v0c-1.1-0.2-1.7-0.8-1.8-2.1c0-1.3,1-2.2,2.8-2.5c0.7-0.1,1.4-0.3,2.1-0.5
		c0.5-0.1,1.2-0.4,1.6-0.6c4.5-1.9,4.5-4.3,4.5-4.3c0-1-0.3-1.9-0.8-2.6c-1.1-1.6-3.5-2.4-7-2.4c-4.3,0-6.7,1.6-7.3,5H70
		c0.2-0.9,1.2-1.3,2.8-1.3c1.9,0,2.9,0.5,3,1.5c0,1-1,1.6-3,1.8c-4.7,0.4-8,1.6-8.1,6c0,4,3.1,6,7.6,5.7h16.8v0c0.1,0,0.2,0,0.3,0
		c4.9,0,8.5-1.6,8.5-6.1c0-1.2-0.4-2.3-1.3-3.2c-1-0.9-3.1-1.7-6.3-2.3c-2.4-0.4-3.6-1.2-3.6-2.1c0-0.9,0.9-1.4,2.7-1.4
		c1.5,0,2.5,0.4,2.8,1.2c0.3,0.7,1,1.1,2.1,1.1h3c-0.1-1.9-0.8-3.4-2.2-4.4c-1.4-1-3.3-1.5-5.7-1.5C85.1,94.1,82,96,82,99.9
		c0,2.8,2.1,4.6,6.3,5.3c3.2,0.5,4.8,1.3,4.8,2.2c0,1.2-1,1.7-3,1.7"/>
	<path d="M71.4,109.1c-0.1,0-0.2,0-0.3,0v0H71.4z"/>
</g>
<circle class="st1" cx="119.8" cy="88.1" r="5"/>
<circle class="st3" cx="119.8" cy="100.9" r="5"/>
<circle class="st2" cx="119.8" cy="113.9" r="5"/>
<image style="overflow:visible;" width="1290" height="650" xlink:href="../../../../Downloads/Flat UI Colors.png"  transform="matrix(3.761825e-002 0 0 3.761825e-002 68.5904 49.9767)">
</image>
<g>
	<path class="st2" d="M12.6,90c-0.4-0.6-1.1-0.9-1.8-0.8c-1.3,0.3-1.9,1.7-1.1,2.8c0.2,0.2,0.2,0.5,0.2,0.8c0,1.2,0,2.4,0,3.6
		c0,0.1,0,0.3,0,0.4c0,0-0.1,0-0.1,0C8.6,95,7,93.6,5.2,92.6c-1.9-1-3.8-1.6-6-1.7c-2.1-0.1-4.2,0.3-6.1,1.1
		c-4.9,2.2-8.4,7.2-8,13.2c0.3,4.8,3.3,8.8,6.1,10.4c0-0.2,0.1-0.3,0.1-0.5c0-0.4,0-0.8,0-1.2c0.1-0.7-0.2-1.2-0.7-1.7
		c-2.6-2.7-3.7-5.9-3.1-9.6c1-6.2,6.8-10.4,13-9.4c5.9,1,10.2,6.5,9.3,12.8c-0.4,3-1.9,5.5-4.3,7.3c-2,1.6-4.4,2.3-6.9,2.3
		c-1.5,0-3-0.3-4.5-0.9c-0.2-0.1-0.3-0.1-0.6-0.2c0,0.8,0,1.5,0,2.2c0,0.1,0.1,0.2,0.2,0.3c0.1,0.1,0.3,0.1,0.5,0.2
		c2.2,0.7,4.4,0.9,6.7,0.6c6.5-1.1,11.3-6.8,11.3-13.3c0-3.8,0-7.7,0-11.5c0-0.4,0.1-0.7,0.3-1C13,91.4,13,90.6,12.6,90z"/>
	<path class="st2" d="M-5.9,113.3c1.9,0.9,3.9,1.3,5.9,1c5.5-0.8,9.5-6.1,8.3-11.8c-1.1-5.2-6-8.4-10.9-7.8c-4.6,0.6-8.7,4.5-8.6,10
		c0,2.2,0.7,4.2,2.1,5.9c0.1,0.1,0.2,0.2,0.3,0.4c0.1-0.2,0.1-0.3,0.1-0.5c0-0.6,0-1.2,0-1.8c0-0.3-0.1-0.6-0.2-0.9
		c-0.6-1.5-0.8-3-0.5-4.5c0.8-4.6,5.1-7.6,9.6-6.8c5.8,1.1,8.6,7.5,5.5,12.4c-2.5,3.9-7.6,5-11.5,2.5c-0.1-0.1-0.3-0.2-0.4-0.3
		c0,0-0.1,0-0.1,0.1c0,0.4,0,0.8,0,1.2C-6.5,112.8-6.3,113.1-5.9,113.3z"/>
	<path class="st2" d="M-7.1,116.5c0-2.5,0-5,0-7.5c0-0.2,0-0.3,0-0.5c0,0,0.1,0,0.1,0c0.1,0.1,0.2,0.2,0.3,0.4
		c1.5,1.8,3.5,2.6,5.8,2.4c4.1-0.3,7-4.3,6.1-8.3c-0.8-3.6-4.5-5.9-8.1-5.2c-3.2,0.7-5.4,3.6-5.4,6.7c0,4,0,7.9,0,11.9
		c0,0.3-0.1,0.6-0.3,0.8c-0.5,0.4-0.6,1.2-0.1,1.7c0.4,0.5,1.2,0.6,1.7,0.2c0.5-0.4,0.6-1.2,0.2-1.7C-7,117.1-7.1,116.8-7.1,116.5z"
		/>
</g>
</svg>
