<?xml version="1.0" encoding="utf-8"?>
<!-- Generator: Adobe Illustrator 19.0.0, SVG Export Plug-In . SVG Version: 6.00 Build 0)  -->
<svg version="1.1" id="Layer_1" xmlns="http://www.w3.org/2000/svg" xmlns:xlink="http://www.w3.org/1999/xlink" x="0px" y="0px"
	 viewBox="-17 81 163.6 40" style="enable-background:new -17 81 163.6 40;" xml:space="preserve">
<style type="text/css">
	.st0{fill:#F56857;}
	.st1{fill:#EE3B25;}
</style>
<g id="XMLID_2_">
	<path id="XMLID_3_" class="st0" d="M-11.2,114V89.1h4.8v20.6h12v4.2H-11.2z"/>
	<path id="XMLID_5_" class="st0" d="M8.9,114V88.9h4.8V114H8.9z"/>
	<path id="XMLID_7_" class="st0" d="M23.7,114V93.2h-7.1v-4.2h19v4.2h-7.1V114H23.7z"/>
	<path id="XMLID_9_" class="st0" d="M38.6,114V88.9h4.8V114H38.6z"/>
	<path id="XMLID_11_" class="st1" d="M60,104.9v-5.2h11.4v10.7c-2.2,1.6-4.1,2.6-5.8,3.2c-1.7,0.6-3.7,0.8-6,0.8
		c-2.8,0-5.1-0.5-6.9-1.5c-1.8-1-3.2-2.5-4.2-4.5c-1-2-1.5-4.3-1.5-6.9c0-2.7,0.5-5.1,1.6-7.1c1.1-2,2.7-3.6,4.7-4.6
		c1.6-0.8,3.8-1.2,6.5-1.2c2.6,0,4.6,0.3,5.9,0.8c1.3,0.5,2.4,1.3,3.3,2.3c0.9,1.1,1.5,2.4,1.9,4L64,96.9c-0.3-0.9-0.8-1.7-1.5-2.2
		c-0.7-0.5-1.6-0.8-2.7-0.8c-1.6,0-2.9,0.6-3.9,1.8c-1,1.2-1.4,3-1.4,5.6c0,2.7,0.5,4.6,1.5,5.8c1,1.2,2.3,1.7,4.1,1.7
		c0.8,0,1.6-0.1,2.4-0.4c0.8-0.3,1.6-0.7,2.6-1.3v-2.4H60z"/>
	<path id="XMLID_13_" class="st1" d="M90.5,109.9h-8.4L81,114h-7.5l9-25.1h8.1l9,25.1h-7.7L90.5,109.9z M89,104.4l-2.6-9l-2.6,9H89z
		"/>
	<path id="XMLID_16_" class="st1" d="M100.5,105.7l7-0.5c0.2,1.2,0.5,2.1,0.9,2.7c0.8,1,1.8,1.5,3.3,1.5c1.1,0,1.9-0.3,2.4-0.8
		c0.6-0.5,0.9-1.1,0.9-1.8c0-0.6-0.3-1.2-0.8-1.7c-0.5-0.5-1.8-1-3.8-1.5c-3.2-0.8-5.5-1.8-6.9-3c-1.4-1.3-2.1-2.9-2.1-4.8
		c0-1.3,0.4-2.5,1.1-3.6c0.7-1.1,1.8-2,3.2-2.7c1.4-0.7,3.4-1,5.9-1c3.1,0,5.4,0.6,7,1.8c1.6,1.2,2.6,3.1,2.9,5.7l-7,0.4
		c-0.2-1.1-0.6-1.9-1.2-2.5c-0.6-0.5-1.4-0.8-2.5-0.8c-0.9,0-1.5,0.2-1.9,0.6s-0.7,0.8-0.7,1.4c0,0.4,0.2,0.8,0.5,1.1
		c0.3,0.3,1.2,0.6,2.5,0.9c3.2,0.7,5.5,1.5,6.9,2.2c1.4,0.7,2.4,1.7,3,2.8c0.6,1.1,1,2.3,1,3.7c0,1.6-0.4,3.1-1.3,4.4
		c-0.8,1.4-2,2.4-3.6,3.1s-3.4,1.1-5.8,1.1c-4.1,0-6.9-0.8-8.4-2.5C101.6,110.3,100.7,108.2,100.5,105.7z"/>
	<path id="XMLID_18_" class="st1" d="M126.2,88.9h7.4V114h-7.4V88.9z"/>
</g>
</svg>
